<svg id="Warstwa_1" data-name="Warstwa 1" xmlns="http://www.w3.org/2000/svg" viewBox="0 0 203 45"><defs><style>.cls-1{fill:#f5f5f5;}.cls-2{fill:#e7452f;}</style></defs><title>logo_fh</title><path class="cls-1" d="M11.4,14.75H8.72L8,19.61H6.13l.7-4.86H4.14l-.71,4.86H1.05v2.52H3.12l-.37,2.43H.35v2.53H2.41l-.7,4.85H4.38l.7-4.85H7l-.7,4.85H9l.72-4.85h2.38V24.56H10l.34-2.43h2.4V19.61h-2ZM7.34,24.56H5.45l.31-2.43H7.68Z"/><polygon class="cls-1" points="15.64 31.94 19.75 31.94 19.75 25.27 26.4 25.27 26.4 21.84 19.75 21.84 19.75 18.3 26.96 18.3 26.96 14.75 15.64 14.75 15.64 31.94"/><path class="cls-1" d="M37.76,21a3.92,3.92,0,0,0-1.71-1.16,7.78,7.78,0,0,0-2.59-.38,8.56,8.56,0,0,0-2.9.51,7.11,7.11,0,0,0-2.49,1.53l2,2.16a5.06,5.06,0,0,1,1.35-.87,3.89,3.89,0,0,1,1.64-.37,2.74,2.74,0,0,1,1.55.43,1.47,1.47,0,0,1,.63,1.32v.2c-.87,0-1.77.05-2.69.14a9.6,9.6,0,0,0-2.52.59,4.73,4.73,0,0,0-1.84,1.23,3.06,3.06,0,0,0-.72,2.12,3.62,3.62,0,0,0,.41,1.79A3.43,3.43,0,0,0,29,31.41a4.44,4.44,0,0,0,1.42.63,6.19,6.19,0,0,0,1.51.19,4.87,4.87,0,0,0,2-.41,2.92,2.92,0,0,0,1.4-1.17h.07v1.29H39V25.85a11.87,11.87,0,0,0-.3-2.85A4.91,4.91,0,0,0,37.76,21Zm-2.38,6.09a2.27,2.27,0,0,1-2.5,2.47,3.31,3.31,0,0,1-.61-.06,1.79,1.79,0,0,1-.55-.2,1.27,1.27,0,0,1-.41-.39,1.1,1.1,0,0,1-.15-.59,1.14,1.14,0,0,1,.34-.86,2.2,2.2,0,0,1,.86-.5,5.58,5.58,0,0,1,1.19-.23q.66-.06,1.32-.06h.51Z"/><polygon class="cls-1" points="54.78 19.85 49.95 19.85 46.09 24.75 46.02 24.75 46.02 13.59 42.01 13.59 42.01 31.94 46.02 31.94 46.02 26.14 46.09 26.14 50.05 31.94 54.98 31.94 50.12 25.31 54.78 19.85"/><path class="cls-1" d="M66.29,21.21a5.4,5.4,0,0,0-1.92-1.3,6.48,6.48,0,0,0-2.45-.45,7.25,7.25,0,0,0-2.58.46,6,6,0,0,0-3.44,3.34,6.81,6.81,0,0,0-.51,2.68,6.67,6.67,0,0,0,.52,2.72,5.75,5.75,0,0,0,1.43,2,6.45,6.45,0,0,0,2.13,1.24,7.74,7.74,0,0,0,2.57.42,7.36,7.36,0,0,0,3.24-.67,5.63,5.63,0,0,0,2.25-1.9L64.76,28a3.28,3.28,0,0,1-1.07.91,3.41,3.41,0,0,1-1.6.35,3.22,3.22,0,0,1-1-.17,3,3,0,0,1-.9-.47,2.51,2.51,0,0,1-.66-.72,2,2,0,0,1-.3-.92H68a3.44,3.44,0,0,0,0-.46V26a8,8,0,0,0-.45-2.77A6.08,6.08,0,0,0,66.29,21.21Zm-7.09,3.3a2.15,2.15,0,0,1,.24-.88,2.47,2.47,0,0,1,.58-.74,2.89,2.89,0,0,1,.85-.5,3.08,3.08,0,0,1,1.07-.18,2.24,2.24,0,0,1,1.79.68,2.39,2.39,0,0,1,.59,1.62Z"/><polygon class="cls-1" points="81.53 21.26 74.83 21.26 74.83 14.75 70.68 14.75 70.68 31.94 74.83 31.94 74.83 24.75 81.53 24.75 81.53 31.94 85.69 31.94 85.69 14.75 81.53 14.75 81.53 21.26"/><path class="cls-1" d="M96.83,26.38a3,3,0,0,1-.55,1.82,1.81,1.81,0,0,1-1.59.78,1.65,1.65,0,0,1-.89-.21,1.44,1.44,0,0,1-.55-.57,2.34,2.34,0,0,1-.28-.82,6.07,6.07,0,0,1-.07-1V19.85h-4v7.48a7.36,7.36,0,0,0,.23,1.81,4.8,4.8,0,0,0,.75,1.58,4.05,4.05,0,0,0,1.36,1.12,4.75,4.75,0,0,0,3.26.27,4.65,4.65,0,0,0,1-.44,3.25,3.25,0,0,0,.83-.63,3.74,3.74,0,0,0,.57-.77h0v1.67h3.83V19.85h-4Z"/><path class="cls-1" d="M114.88,21.08A3.93,3.93,0,0,0,113.51,20a4.48,4.48,0,0,0-2.06-.44,4.12,4.12,0,0,0-1.19.17,4.85,4.85,0,0,0-1,.44,3.47,3.47,0,0,0-.82.64,3.55,3.55,0,0,0-.57.77h0V19.85h-3.86V31.94h4V25.39a3.64,3.64,0,0,1,.13-1,2.56,2.56,0,0,1,.4-.83,1.75,1.75,0,0,1,.67-.57,2,2,0,0,1,.93-.21A1.72,1.72,0,0,1,111,23a1.36,1.36,0,0,1,.54.55,2.56,2.56,0,0,1,.28.82,5,5,0,0,1,.09,1v6.6h4V24.46a6.93,6.93,0,0,0-.23-1.79A4.33,4.33,0,0,0,114.88,21.08Z"/><path class="cls-1" d="M123.2,16.67h-3.91v3.18h-1.92v3h1.94v5.11a6.91,6.91,0,0,0,.22,1.77,3.48,3.48,0,0,0,.72,1.36,3.13,3.13,0,0,0,1.32.88,6,6,0,0,0,2,.3,6.71,6.71,0,0,0,1.26-.11,6.26,6.26,0,0,0,1-.25l0-2.91a2.31,2.31,0,0,1-.55.14,4.56,4.56,0,0,1-.62,0,1.37,1.37,0,0,1-1.17-.43,2.06,2.06,0,0,1-.33-1.28V22.81H126v-3H123.2Z"/><path class="cls-1" d="M138.2,21.21a5.23,5.23,0,0,0-1.92-1.3,6.48,6.48,0,0,0-2.45-.45,7.2,7.2,0,0,0-2.57.46,6.22,6.22,0,0,0-2.07,1.3,6.13,6.13,0,0,0-1.38,2,6.81,6.81,0,0,0-.51,2.68,6.67,6.67,0,0,0,.52,2.72,5.88,5.88,0,0,0,1.43,2,6.45,6.45,0,0,0,2.13,1.24,7.83,7.83,0,0,0,2.57.42,7.36,7.36,0,0,0,3.24-.67,5.63,5.63,0,0,0,2.25-1.9L136.67,28a3.18,3.18,0,0,1-1.07.91,3.38,3.38,0,0,1-1.6.35,3.25,3.25,0,0,1-1.93-.64,2.34,2.34,0,0,1-.65-.72,1.94,1.94,0,0,1-.31-.92h8.77c0-.15,0-.3,0-.46V26a8,8,0,0,0-.45-2.77A6.08,6.08,0,0,0,138.2,21.21Zm-7.09,3.3a2.31,2.31,0,0,1,.24-.88,2.36,2.36,0,0,1,.59-.74,2.65,2.65,0,0,1,.85-.5,3,3,0,0,1,1.06-.18,2.23,2.23,0,0,1,1.79.68,2.35,2.35,0,0,1,.59,1.62Z"/><path class="cls-1" d="M149.54,19.51a3.39,3.39,0,0,0-2,.59,4,4,0,0,0-1.31,1.51h0V19.87h-3.83V31.94h4v-6.2a3.19,3.19,0,0,1,.14-.84A2.61,2.61,0,0,1,147,24a2.71,2.71,0,0,1,2.22-1l.5,0a3.39,3.39,0,0,1,.52.1l.17-3.52a1.62,1.62,0,0,0-.38-.07A3.59,3.59,0,0,0,149.54,19.51Z"/><path class="cls-1" d="M199.71,19.22a3,3,0,0,0-2.58,1.53H195a15.22,15.22,0,0,0-1.54-5.24l1.66-1a2.94,2.94,0,1,0-1.33-2.39l-1.78,1A15.56,15.56,0,0,0,188.75,10l.94-1.62A2.94,2.94,0,1,0,187.34,7l-.94,1.61a15.12,15.12,0,0,0-4.83-1.39V5.76a2.94,2.94,0,1,0-2.74,0V7.14a15.25,15.25,0,0,0-5.67,1.48L172.4,7.3a2.95,2.95,0,1,0-2.35,1.4l.77,1.33a15.51,15.51,0,0,0-3.32,3.3L166,12.46a2.94,2.94,0,1,0-4.41,2.48,2.92,2.92,0,0,0,3.07-.09l1.43.82a15.34,15.34,0,0,0-1.43,4.87h-1.71a2.93,2.93,0,1,0,0,2.73h1.67a15.17,15.17,0,0,0,1.1,4.87L164.2,29a2.94,2.94,0,1,0,1.33,2.39l1.41-.81a15.16,15.16,0,0,0,3.21,3.61l-.55,1a2.93,2.93,0,1,0,2.35,1.4l.47-.82a15.2,15.2,0,0,0,5.82,1.82v1.7a2.94,2.94,0,1,0,2.74,0V37.57a15.2,15.2,0,0,0,5.47-1.48l.44.75a2.94,2.94,0,1,0,5.05.06,2.92,2.92,0,0,0-2.7-1.46l-.44-.77a15.36,15.36,0,0,0,3.49-3.57l1,.58a2.94,2.94,0,1,0,1.33-2.39l-1-.57A15.22,15.22,0,0,0,195,23.49h2.09a2.94,2.94,0,1,0,2.62-4.27Z"/><path class="cls-2" d="M187.44,22.19a7.86,7.86,0,0,0-7.22-7.34v-3H179v3a7.86,7.86,0,0,0-7.26,7.35h-2.54v1.19h2.56A7.85,7.85,0,0,0,179,30.5v2.62h1.19V30.49a7.86,7.86,0,0,0,7.2-7.11h2.89V22.19ZM179,29.3a6.65,6.65,0,0,1-6-5.92h2.66A4.05,4.05,0,0,0,179,26.83Zm0-3.68a2.88,2.88,0,0,1-2.17-2.24H179Zm0-3.43h-2.14A2.85,2.85,0,0,1,179,20.06Zm0-3.35a4.06,4.06,0,0,0-3.36,3.35H173A6.66,6.66,0,0,1,179,16Zm1.19,1.21a2.84,2.84,0,0,1,2.21,2.14h-2.21Zm0,3.33h2.24a2.85,2.85,0,0,1-2.24,2.25Zm0,5.92V26.84a4.05,4.05,0,0,0,3.45-3.46h2.55A6.68,6.68,0,0,1,180.22,29.3Zm3.43-7.11a4,4,0,0,0-3.43-3.35V16a6.66,6.66,0,0,1,6,6.15Z"/></svg>