<svg xmlns="http://www.w3.org/2000/svg" viewBox="0 0 216.65 36.61">
  <defs/>
  <g fill="#fff">
    <path d="M12.34 8.79h-3l-.79 5.37h-2.1l.78-5.37h-3l-.79 5.37H.79V17h2.29l-.41 2.68H0v2.79h2.31l-.79 5.33h3l.79-5.38h2.12l-.8 5.38h3l.81-5.38h2.65v-2.79h-2.3l.37-2.63h2.68v-2.84h-2.27zM7.81 19.63H5.69L6.05 17h2.14l-.38 2.68zm9.26 8.17h4.58v-7.39h7.42v-3.78h-7.42v-3.92h8.06V8.79H17.07v19zm24.7-12.1a4.33 4.33 0 00-1.91-1.29A9 9 0 0037 14a9.69 9.69 0 00-3.24.56A7.48 7.48 0 0031 16.25l2.25 2.38a5.66 5.66 0 011.51-1 4.32 4.32 0 011.83-.41 3 3 0 011.73.47 1.64 1.64 0 01.68 1.5v.22a28.29 28.29 0 00-3 .17 10.72 10.72 0 00-2.81.65 5.21 5.21 0 00-2.06 1.37 3.33 3.33 0 00-.8 2.34 3.93 3.93 0 00.46 2A3.77 3.77 0 0032 27.22a5.17 5.17 0 001.59.7 7.22 7.22 0 001.67.22 5.67 5.67 0 002.26-.46 3.45 3.45 0 001.57-1.29h.08v1.42h4.03v-6.74a12.17 12.17 0 00-.35-3.15 5.76 5.76 0 00-1.08-2.22zm-2.66 6.72a2.53 2.53 0 01-2.79 2.74 3.21 3.21 0 01-.68-.07 1.56 1.56 0 01-.62-.23 1.26 1.26 0 01-.44-.42 1.08 1.08 0 01-.18-.65 1.24 1.24 0 01.38-1 2.38 2.38 0 011-.55 6.78 6.78 0 011.29-.24 14.8 14.8 0 011.48 0h.56zm21.66-8h-5.39l-4.32 5.43H51V7.5h-4.5v20.3H51v-6.42h.08l4.42 6.42H61l-5.41-7.33zm12.84 1.51a6 6 0 00-2.14-1.44 7.34 7.34 0 00-2.74-.49 7.94 7.94 0 00-2.87.5 7.19 7.19 0 00-2.31 1.44A6.77 6.77 0 0062 18.19a7.46 7.46 0 00-.57 3 7.19 7.19 0 00.59 3 6.32 6.32 0 001.6 2.22A6.91 6.91 0 0066 27.77a8.87 8.87 0 002.88.47 8.2 8.2 0 003.61-.74A6.2 6.2 0 0075 25.39l-3.1-1.93a3.73 3.73 0 01-1.19 1 3.79 3.79 0 01-1.79.38 3.69 3.69 0 01-1.15-.18 3.43 3.43 0 01-1-.53 2.88 2.88 0 01-.73-.79 2.48 2.48 0 01-.35-1h9.79a4.26 4.26 0 000-.51v-.54a8.85 8.85 0 00-.5-3.06 6.51 6.51 0 00-1.39-2.29zm-7.92 3.65a2.61 2.61 0 01.27-1 2.71 2.71 0 01.65-.82 3.07 3.07 0 011-.55 3.24 3.24 0 011.19-.2 2.53 2.53 0 012 .75 2.59 2.59 0 01.67 1.8zM90.63 16h-7.48V8.79h-4.63v19h4.63v-7.94h7.48v8h4.64v-19h-4.64zm17.08 5.66a3.35 3.35 0 01-.61 2 2 2 0 01-1.77.86 1.69 1.69 0 01-1.61-.85 2.78 2.78 0 01-.31-.92 7.59 7.59 0 01-.08-1.07v-7.27h-4.47v8.28a7.89 7.89 0 00.26 2 4.53 4.53 0 002.36 3 5 5 0 002.28.48 4.59 4.59 0 001.35-.19 5.08 5.08 0 001.16-.48 3.85 3.85 0 00.92-.7 3.17 3.17 0 00.63-.86h.06v1.86h4.28V14.42h-4.45zm20.15-5.85a4.54 4.54 0 00-1.53-1.26 5.19 5.19 0 00-2.31-.48 4.86 4.86 0 00-1.33.19 5.28 5.28 0 00-1.15.48 3.67 3.67 0 00-.92.72 4 4 0 00-.64.84v-1.88h-4.31V27.8h4.47v-7.25a3.93 3.93 0 01.15-1.09 2.85 2.85 0 01.44-.93 2.1 2.1 0 01.74-.62 2.2 2.2 0 011-.23 1.8 1.8 0 011 .23 1.56 1.56 0 01.61.61 3.09 3.09 0 01.32.9 6.28 6.28 0 01.1 1.08v7.31h4.5v-8.28a8 8 0 00-.26-2 4.63 4.63 0 00-.83-1.75zm9.28-4.88h-4.35v3.51h-2.15v3.26h2.18v5.65a7.39 7.39 0 00.24 1.95 3.84 3.84 0 00.8 1.51 3.54 3.54 0 001.48 1 6.74 6.74 0 002.27.34A9.58 9.58 0 00139 28a6.79 6.79 0 001.16-.29l-.05-3.22a2.8 2.8 0 01-.61.17 5.34 5.34 0 01-.69.05 1.55 1.55 0 01-1.31-.47 2.34 2.34 0 01-.37-1.42V17.7h3.18v-3.28h-3.18v-3.51zm16.76 5a6.12 6.12 0 00-2.15-1.44A7.34 7.34 0 00149 14a7.94 7.94 0 00-2.87.5 7.19 7.19 0 00-2.31 1.44 6.77 6.77 0 00-1.54 2.25 7.45 7.45 0 00-.56 3 7.19 7.19 0 00.58 3 6.33 6.33 0 001.6 2.22 6.91 6.91 0 002.37 1.38 8.82 8.82 0 002.88.47 8.2 8.2 0 003.61-.74 6.2 6.2 0 002.51-2.11l-3.09-1.93a3.74 3.74 0 01-1.2 1 3.79 3.79 0 01-1.79.38 3.74 3.74 0 01-1.15-.18 3.43 3.43 0 01-1-.53 3 3 0 01-.73-.79 2.48 2.48 0 01-.35-1h9.79a4.26 4.26 0 000-.51v-.54a8.85 8.85 0 00-.5-3.06 6.51 6.51 0 00-1.39-2.29zm-7.9 3.65a2.61 2.61 0 01.27-1 2.71 2.71 0 01.66-.82 2.91 2.91 0 01.94-.55A3.26 3.26 0 01149 17a2.52 2.52 0 012 .75 2.59 2.59 0 01.67 1.8zm20.58-5.53a3.79 3.79 0 00-2.19.65 4.26 4.26 0 00-1.47 1.68v-1.93h-4.29V27.8H163v-6.86a3.23 3.23 0 01.17-.93 3.17 3.17 0 01.53-1 3.1 3.1 0 011-.78 3.27 3.27 0 011.51-.32h.55a3.21 3.21 0 01.59.11l.19-3.89a2.07 2.07 0 00-.42-.08 5.07 5.07 0 00-.55 0z" class="cls-1" data-name="svg 1"/>
    <path d="M184.71 17.2h3a4.53 4.53 0 013.76-3.74v-3.14a7.45 7.45 0 00-6.76 6.88zm8.11 5.2v2.75a7.46 7.46 0 006.71-6.62h-2.86a4.51 4.51 0 01-3.85 3.87zm-3.73-5.2h2.4v-2.38a3.19 3.19 0 00-2.4 2.38zm2.4 3.8v-2.5h-2.42a3.18 3.18 0 002.42 2.5zm-3.78-2.47h-3a7.44 7.44 0 006.76 6.62v-2.76a4.53 4.53 0 01-3.76-3.86zm5.11-8.2v3.12a4.53 4.53 0 013.83 3.75h2.9a7.45 7.45 0 00-6.73-6.87zm0 10.73a3.19 3.19 0 002.5-2.53h-2.5zm0-6.26v2.4h2.47a3.19 3.19 0 00-2.47-2.4z" class="cls-1"/>
    <path d="M214.25 20h-.06a3.31 3.31 0 00-3.22.87l-2.06-.57a16.88 16.88 0 00.22-2.77 17.23 17.23 0 00-.15-2.28l1.92-.5a3.2 3.2 0 003.24 1 3.34 3.34 0 002.42-4 3.17 3.17 0 00-3.86-2.34h-.06a3.39 3.39 0 00-2.39 2.36l-1.94.51a16.67 16.67 0 00-2.57-4.93l1.12-1.08a3.27 3.27 0 10-1.14-5.33 3.26 3.26 0 00-.91 3.21l-1.08 1a16.82 16.82 0 10-1.38 25.86l.45-.34 1.58 1.63a3.21 3.21 0 00.69 3.32 3.29 3.29 0 004.73-4.56 3.2 3.2 0 00-3.19-.85L205 28.57a16.93 16.93 0 003.12-5.3l1.92.53a3.17 3.17 0 002.27 2.49 3.32 3.32 0 004-2.27 3.17 3.17 0 00-2.06-4.02zm-21.43 6.44v2.95h-1.33v-2.9a8.79 8.79 0 01-8.1-8h-2.86V17.2h2.84a8.8 8.8 0 018.12-8.2V5.67h1.33V9a8.79 8.79 0 018.07 8.21h3.21v1.33h-3.23a8.78 8.78 0 01-8.05 7.94z" class="cls-1"/>
  </g>
</svg>
