<svg xmlns="http://www.w3.org/2000/svg" viewBox="0 0 87 110">
  <path d="M43.359 71.972c2.1 0 3.858-1.758 3.858-3.808V18.017l-.293-7.324 3.272 3.467 7.421 7.91c.684.78 1.71 1.172 2.637 1.172 2.002 0 3.565-1.465 3.565-3.467 0-1.025-.44-1.807-1.172-2.54L46.143 1.319C45.166.34 44.336 0 43.36 0c-1.026 0-1.856.342-2.832 1.318L24.024 17.236c-.733.732-1.172 1.514-1.172 2.54 0 2 1.465 3.466 3.515 3.466.928 0 2.002-.39 2.686-1.172l7.422-7.91 3.271-3.467-.293 7.324v50.147c0 2.05 1.807 3.808 3.907 3.808zm-28.027 38.233h56.006c10.205 0 15.332-5.078 15.332-15.137v-48.73c0-10.06-5.127-15.137-15.332-15.137H57.715v7.86h13.477c4.834 0 7.617 2.638 7.617 7.716v47.852c0 5.078-2.783 7.714-7.617 7.714H15.43c-4.883 0-7.568-2.636-7.568-7.714V46.777c0-5.078 2.685-7.715 7.568-7.715h13.525V31.2H15.332C5.127 31.2 0 36.279 0 46.338v48.73c0 10.059 5.127 15.137 15.332 15.137z"/>
</svg>
